<svg xmlns="http://www.w3.org/2000/svg" class="icon" viewBox="0 -266 1556 1556">
    <path fill="#C0D36F"
          d="M1471.9 717.112s-159.843-9.053-253.502 82.108-420.526 70.556-420.526 70.556l-102.4-41.835-434.264-384s20.605-89.287 28.41-128.312-31.22-143.61-70.244-161.717L324.896 30.907S440.72 9.054 453.833 91.473s184.82 134.556 239.453 121.444 184.82-18.107 234.147 106.77 187.317 218.537 226.341 254.752z"/>
    <path fill="#182445"
          d="m1412.896 668.098-228.527-96.78a204.176 204.176 0 0 1-102.712-73.367L917.13 276.605c-45.268-62.44-124.878-119.883-207.61-101.464-160.156 35.279-215.726-43.395-255.063-120.195A98.654 98.654 0 0 0 379.53 2.81a147.98 147.98 0 0 0-124.878 41.21L46.418 252.254a156.098 156.098 0 0 0 6.868 228.526l541.347 480.781H269.95a31.22 31.22 0 0 0-31.22 31.22A31.22 31.22 0 0 0 269.95 1024h1147.317a138.615 138.615 0 0 0 138.302-138.302v-42.459c.312-59.63-24.975-137.99-142.673-175.141zM299.92 87.102a86.478 86.478 0 0 1 69.932-23.414 36.839 36.839 0 0 1 29.034 19.044c48.078 93.658 128.625 195.746 324.059 152.663 48.078-10.615 96.468 21.854 130.497 60.566a29.034 29.034 0 0 0-9.366 6.244l-152.35 152.351a29.034 29.034 0 0 0 0 41.21l3.121 3.122a29.034 29.034 0 0 0 41.21 0l152.351-152.351a27.161 27.161 0 0 0 1.873-2.81l56.82 76.8a28.098 28.098 0 0 0-6.868 4.37L841.89 523.24a29.034 29.034 0 0 0 0 41.21l3.122 3.122a29.034 29.034 0 0 0 41.21 0l97.717-97.717 48.39 65.56c2.186 3.123 4.995 5.62 7.493 8.742l-52.449 52.449a29.034 29.034 0 0 0 0 41.21l3.122 3.122a29.034 29.034 0 0 0 41.21 0l52.76-52.761a256 256 0 0 0 78.986 42.458l162.03 68.37a306.888 306.888 0 0 0-178.888 120.82 29.034 29.034 0 0 1-23.415 11.24H739.803a31.22 31.22 0 0 1-20.292-7.805L282.437 426.77a31.22 31.22 0 0 1-6.556-35.903c26.537-50.888 52.45-124.878 25.288-184.82a128.312 128.312 0 0 0-58.38-59.628zm1193.21 798.283a76.176 76.176 0 0 1-75.863 75.864H763.53a189.19 189.19 0 0 1-124.878-47.766L96.057 432.703a93.659 93.659 0 0 1-4.059-137.679l102.713-102.712a77.424 77.424 0 0 1 48.39 38.4c17.795 39.649-7.18 98.654-23.727 130.498a93.659 93.659 0 0 0 19.98 111.141L676.429 868.84a93.659 93.659 0 0 0 62.439 24.039h382.75a91.785 91.785 0 0 0 73.367-36.215 241.015 241.015 0 0 1 258.81-97.404 103.024 103.024 0 0 1 38.712 83.668v42.458zM141.013 961.25H32.993a31.22 31.22 0 0 0 0 62.439h108.02a31.22 31.22 0 1 0 0-62.44z"/>
</svg>
