<svg xmlns="http://www.w3.org/2000/svg" xml:space="preserve" viewBox="0 0 512.001 512.001"><path d="M143.071 45.427c-21.586 3.347-36.373 23.56-33.026 45.147s23.56 36.373 45.147 33.026a39.362 39.362 0 0 0 20.448-9.735 38.178 38.178 0 0 1 .679-22.741 38.155 38.155 0 0 1 11.115-16.477c-4.996-19.487-24.07-32.366-44.363-29.22z"/>
    <circle cx="382.143" cy="42.32" r="42.32"/>
    <path
        d="m271.914 253.68-61.591-42.187-50.758-51.221 54.009 32.048-4.562-29.419c-2.435-15.701-16.309-26.584-30.989-24.308l-34.98 4.739c-14.282 1.934-25.975 15.099-23.468 31.403l22.517 146.418v168.15c0 12.382 10.038 22.42 22.42 22.42 12.382 0 22.42-10.038 22.42-22.42V315.028l17.436-2.445v176.718a39.662 39.662 0 0 1-5.584 20.343 22.3 22.3 0 0 0 9.378 2.076c12.382 0 22.42-10.038 22.42-22.42l-.826-197.459-55.881-41.866-39.395-64.843 51.939 52.412a17.6 17.6 0 0 0 2.564 2.139l62.974 43.135c8.052 5.515 19.039 3.452 24.55-4.589 5.508-8.047 3.454-19.038-4.593-24.549zM96.863 46.808 52.995 22.271a8.366 8.366 0 0 0-8.166 14.602l43.868 24.536a8.366 8.366 0 0 0 8.166-14.601zM95.184 80.406c-.26-4.613-4.241-8.143-8.821-7.882l-64.687 3.638a8.363 8.363 0 0 0-7.882 8.821 8.365 8.365 0 0 0 8.821 7.882l64.687-3.638a8.364 8.364 0 0 0 7.882-8.821z"/>
    <path
        d="M498.076 167.376a19.178 19.178 0 0 0-8.316-13.553c-74.175-49.987-68.757-46.433-70.566-47.339-4.296-3.848-9.792-6.122-15.719-6.122h-42.663c-5.055 0-9.8 1.673-13.758 4.56l23.734 3.374-60.169 8.717-91.796-31.556c-10.019-3.446-20.928 1.886-24.37 11.901-3.444 10.015 1.885 20.927 11.901 24.37l96.185 33.065a19.164 19.164 0 0 0 8.985.844l64.764-9.383-48.159 22.025-29.224 159.714c-1.288 7.04 3.699 13.559 10.286 13.559h30.63v145.944c0 13.533 10.97 24.504 24.503 24.504s24.503-10.971 24.503-24.504V341.553h14.776v145.944a39.05 39.05 0 0 1-7.221 22.655 24.425 24.425 0 0 0 9.343 1.849c13.533 0 24.504-10.971 24.504-24.504V341.553h24.863c6.576 0 11.572-6.533 10.286-13.559l-17.386-95.023 45.312-50.428a19.17 19.17 0 0 0 4.772-15.167zm-58.804 17.918-4.016-21.951 14.787 9.965-10.771 11.986z"/></svg>
